HIERARCHY
ROOT hip
{
	OFFSET 0.000000 0.000000 0.000000 
	CHANNELS 6 Xposition Yposition Zposition Xrotation Zrotation Yrotation
	JOINT abdomen
	{
		OFFSET 0.000000 3.402643 0.000000 
		CHANNELS 3 Xrotation Zrotation Yrotation
		JOINT chest
		{
			OFFSET 0.000000 8.438565 -0.680529 
			CHANNELS 3 Xrotation Zrotation Yrotation
			JOINT neck
			{
				OFFSET 0.000000 10.207942 -0.272212 
				CHANNELS 3 Xrotation Zrotation Yrotation
				JOINT head
				{
					OFFSET 0.000000 3.130431 0.000000 
					CHANNELS 3 Xrotation Zrotation Yrotation
					End Site
					{
						OFFSET 0.000000 3.130435 0.000000 
					}
				}
			}
			JOINT lCollar
			{
				OFFSET 3.470700 6.669187 -0.816635 
				CHANNELS 3 Yrotation Zrotation Xrotation
				JOINT lShldr
				{
					OFFSET 3.198488 0.000000 0.000000 
					CHANNELS 3 Zrotation Yrotation Xrotation
					JOINT lForeArm
					{
						OFFSET 10.139888 0.000000 0.000000 
						CHANNELS 3 Yrotation Zrotation Xrotation
						JOINT lHand
						{
							OFFSET 8.370511 0.000000 0.000000 
							CHANNELS 3 Zrotation Yrotation Xrotation
							End Site
							{
								OFFSET 4.083176 0.000000 0.000000 
							}
						}
					}
				}
			}
			JOINT rCollar
			{
				OFFSET -3.470700 6.669187 -0.816635 
				CHANNELS 3 Yrotation Zrotation Xrotation
				JOINT rShldr
				{
					OFFSET -3.198488 0.000000 0.000000 
					CHANNELS 3 Zrotation Yrotation Xrotation
					JOINT rForeArm
					{
						OFFSET -10.139888 0.000000 0.000000 
						CHANNELS 3 Yrotation Zrotation Xrotation
						JOINT rHand
						{
							OFFSET -8.370511 0.000000 0.000000 
							CHANNELS 3 Zrotation Yrotation Xrotation
							End Site
							{
								OFFSET -4.083176 0.000000 0.000000 
							}
						}
					}
				}
			}
		}
	}
	JOINT lThigh
	{
		OFFSET 5.308129 -1.633274 1.361059 
		CHANNELS 3 Xrotation Zrotation Yrotation
		JOINT lShin
		{
			OFFSET -2.041588 -20.007561 0.000000 
			CHANNELS 3 Xrotation Zrotation Yrotation
			JOINT lFoot
			{
				OFFSET 0.000000 -19.190928 -1.224953 
				CHANNELS 3 Xrotation Yrotation Zrotation
				End Site
				{
					OFFSET 0.000000 -2.449906 4.627600 
				}
			}
		}
	}
	JOINT rThigh
	{
		OFFSET -5.308129 -1.633274 1.361059 
		CHANNELS 3 Xrotation Zrotation Yrotation
		JOINT rShin
		{
			OFFSET 2.041588 -20.007561 0.000000 
			CHANNELS 3 Xrotation Zrotation Yrotation
			JOINT rFoot
			{
				OFFSET 0.000000 -19.190928 -1.224953 
				CHANNELS 3 Xrotation Yrotation Zrotation
				End Site
				{
					OFFSET 0.000000 -2.449906 4.627600 
				}
			}
		}
	}
}
MOTION
Frames: 18
Frame Time: 0.033333
16.152073 45.088306 -72.269745 0.000000 7.832032 -86.572266 10.370376 -8.712459 -6.345483 -5.302734 7.285157 -4.012434 -8.603516 0.000000 0.000000 2.451172 -6.269531 29.998940 2.000000 -2.000000 0.000000 -122.763672 -44.628906 66.533203 -55.630157 -0.531089 2.989177 1.649248 -3.400840 -3.509154 -2.000000 2.000000 0.000000 83.417969 10.537110 -20.429688 122.851662 0.626976 4.149297 -1.668799 3.381294 -3.509732 -3.347944 14.078128 74.485306 -0.435829 -4.042217 -0.080867 26.160286 -1.271725 -0.075747 -2.657713 -15.981285 -25.952085 5.041950 4.014181 0.442413 8.783640 0.324464 -0.006144 
16.071333 45.111729 -72.207382 0.703125 8.339844 -82.333984 10.370376 -8.712459 -6.345483 -5.195313 7.148438 -3.515625 -8.603516 0.000000 0.000000 2.011719 -5.800781 26.191408 2.000000 -2.000000 0.000000 -114.785156 -43.349609 59.690559 -62.024109 -0.485020 3.103760 1.649248 -3.400840 -3.509154 -2.000000 2.000000 0.000000 83.925781 10.302734 -18.144533 122.461235 0.627569 4.139552 -1.668799 3.381294 -3.509732 -5.905780 13.989357 73.712990 0.704364 -4.052400 -0.154679 25.685375 -0.630561 -0.058903 -1.328885 -15.418602 -29.966759 4.503583 4.002439 0.393177 8.662106 0.005353 0.011733 
15.947117 45.112629 -71.923378 1.152344 8.798827 -78.095703 10.370376 -8.712459 -6.345483 -5.107422 6.748047 -3.046875 -8.603516 0.000000 0.000000 1.552734 -5.595703 22.480473 2.000000 -2.000000 0.000000 -106.142578 -40.996098 51.308598 -68.437805 -0.459032 3.209779 1.649248 -3.400840 -3.509154 -2.000000 2.000000 0.000000 84.335938 10.273438 -15.701383 121.943878 0.618416 4.129213 -1.668799 3.381294 -3.509732 -8.164844 13.632329 70.297150 2.538760 -4.044665 -0.327605 24.607115 0.353349 -0.034220 0.415199 -15.042048 -34.414692 3.472077 3.994992 0.317619 8.807608 -0.151707 0.036628 
15.764674 45.064632 -71.386261 1.494141 9.257813 -73.982803 10.370376 -8.712459 -6.345483 -5.332030 6.162110 -2.459889 -8.603516 0.000000 0.000000 1.396484 -5.849610 19.609377 2.000000 -2.000000 0.000000 -97.734375 -37.626953 41.742085 -73.182007 -0.434221 3.296381 1.649248 -3.400840 -3.509154 -2.000000 2.000000 0.000000 84.306641 10.292969 -13.133021 121.280006 0.609262 4.118876 -1.668799 3.381294 -3.509732 -10.167409 13.191522 64.133446 4.824208 -4.017143 -0.484621 22.990919 2.139280 -0.009560 2.489266 -14.843571 -39.513496 1.929751 4.014012 0.244252 9.345634 0.040556 -0.008555 
15.525295 44.944035 -70.603310 1.914063 9.794923 -70.232712 10.370376 -8.712459 -6.345483 -6.025390 5.527344 -1.317419 -8.603516 0.000000 0.000000 1.738281 -6.318359 17.900393 2.000000 -2.000000 0.000000 -90.390625 -33.427734 32.060547 -74.665756 -0.422701 3.325026 1.649248 -3.400840 -3.509154 -2.000000 2.000000 0.000000 83.730469 10.048829 -11.101810 120.664978 0.609856 4.109130 -1.668799 3.381294 -3.509732 -12.090636 13.083708 55.650745 7.493632 -3.999643 -0.659895 21.160280 4.883334 -0.038501 4.460895 -14.705860 -44.791508 0.338497 3.992206 0.157672 10.177659 0.397824 0.051026 
15.257452 44.753185 -69.641655 2.734375 10.380859 -67.138672 10.370376 -8.712459 -6.345483 -7.148437 4.843750 0.830903 -8.603516 0.000000 0.000000 2.685547 -6.464844 16.806643 2.000000 -2.000000 0.000000 -84.423828 -28.681641 23.769533 -72.303520 -0.435402 3.276891 1.649248 -3.400840 -3.509154 -2.000000 2.000000 0.000000 82.890625 9.394530 -10.566407 120.362251 0.600108 4.108538 -1.668799 3.381294 -3.509732 -14.121567 13.617033 46.678574 10.436630 -3.981372 -0.854044 19.664259 7.517465 -0.025230 5.604462 -14.628684 -48.843880 -0.392877 3.987291 0.065398 11.051319 0.541943 0.046937 
15.011605 44.528423 -68.613647 4.111328 10.957031 -64.802834 10.370376 -8.712459 -6.345483 -8.437500 4.101563 4.062500 -8.603516 0.000000 0.000000 4.228515 -5.410156 14.765628 2.000000 -2.000000 0.000000 -79.804688 -23.515625 18.154297 -66.924561 -0.450465 3.189698 1.649248 -3.400840 -3.509154 -2.000000 2.000000 0.000000 82.333984 8.369140 -12.265623 120.362251 0.600108 4.108538 -1.668799 3.381294 -3.509732 -16.269640 14.834483 39.474083 13.264573 -3.969176 -1.069990 18.850973 8.939537 0.008120 5.393425 -14.722961 -49.653938 0.542519 4.008152 0.123585 11.608287 -0.277959 0.006155 
14.831362 44.325279 -67.632332 6.025391 11.386719 -63.056641 10.370376 -8.712459 -6.345483 -9.423828 3.281250 7.754466 -8.603516 0.000000 0.000000 6.298828 -2.568359 10.263235 2.000000 -2.000000 0.000000 -76.347656 -18.115234 15.605466 -60.384117 -0.496537 3.075114 1.649248 -3.400840 -3.509154 -2.000000 2.000000 0.000000 82.636719 7.392578 -16.093750 120.127876 0.600108 4.108538 -1.668799 3.381294 -3.509732 -18.279362 16.367289 35.374889 15.466588 -3.916577 -1.225216 18.653000 8.690150 0.001427 3.869615 -15.082685 -45.736771 3.372726 4.002821 0.320345 11.570804 -2.118894 0.026176 
14.724615 44.189804 -66.774582 8.212891 11.523438 -61.443363 10.370376 -8.712459 -6.345483 -9.736328 2.578125 10.918408 -8.603516 0.000000 0.000000 8.945313 2.109375 2.744501 2.000000 -2.000000 0.000000 -74.072266 -12.724610 15.380858 -54.653801 -0.541426 2.980022 1.649248 -3.400840 -3.509154 -2.000000 2.000000 0.000000 83.876953 6.865235 -21.064451 118.848991 0.591548 4.088454 -1.668799 3.381294 -3.509732 -19.872435 17.829245 33.863495 16.729134 -3.890849 -1.305111 18.648241 7.279127 -0.019015 1.608202 -15.602338 -37.433083 7.340531 3.977471 0.598731 11.017048 -4.381576 0.003440 
14.659531 44.137661 -66.093330 10.390625 11.230470 -59.451221 10.370376 -8.712459 -6.345483 -9.277344 2.167969 12.715214 -8.603516 0.000000 0.000000 12.236328 7.949218 -6.854119 2.000000 -2.000000 0.000000 -73.066406 -7.812500 16.191408 -50.953896 -0.583954 2.923911 1.649248 -3.400840 -3.509154 -2.000000 2.000000 0.000000 85.537109 6.875001 -25.917969 116.017990 0.565272 4.037951 -1.668799 3.381294 -3.509732 -21.054073 18.952309 33.384750 17.130552 -3.891110 -1.314964 18.288437 5.669361 -0.033583 -0.675529 -16.051056 -27.192352 11.226707 3.929915 0.839575 10.079123 -5.751633 0.006500 
14.589010 44.152153 -65.665428 12.392579 10.595703 -56.814610 10.370376 -8.712459 -6.345483 -8.408203 2.353516 12.920236 -8.603516 0.000000 0.000000 16.083984 13.759765 -16.464844 2.000000 -2.000000 0.000000 -73.291016 -3.906250 16.855469 -49.499233 -0.594881 2.905011 1.649248 -3.400840 -3.509154 -2.000000 2.000000 0.000000 86.796875 7.138672 -29.715586 111.986031 0.520094 3.976516 -1.668799 3.381294 -3.509732 -22.127556 19.633526 32.532673 16.950813 -3.887050 -1.310625 17.450018 4.405002 -0.007039 -2.461612 -16.139881 -18.294701 13.946464 3.900307 1.064271 9.134111 -5.590605 -0.023644 
14.476700 44.197052 -65.611725 14.257813 9.824219 -53.554688 10.370376 -8.712459 -6.345483 -7.675780 3.291016 11.992748 -8.603516 0.000000 0.000000 19.941408 18.339846 -23.991068 2.000000 -2.000000 0.000000 -74.443359 -1.464844 16.747799 -49.655487 -0.594881 2.905011 1.649248 -3.400840 -3.509154 -2.000000 2.000000 0.000000 86.982422 7.216797 -32.205803 107.797821 0.484662 3.915674 -1.668799 3.381294 -3.509732 -23.581562 19.992443 30.876806 16.546658 -3.900820 -1.283094 16.405420 3.612249 0.003471 -3.847838 -15.787989 -12.805950 15.116607 3.873987 1.126510 8.337860 -4.077916 -0.016979 
14.305382 44.237293 -66.038208 16.103516 9.140625 -49.930088 10.370376 -8.712459 -6.345483 -7.421875 4.912109 10.547710 -8.603516 0.000000 0.000000 22.988283 20.996094 -28.365644 2.000000 -2.000000 0.000000 -76.054688 -0.517578 15.664061 -50.436531 -0.584544 2.914166 1.649248 -3.400840 -3.509154 -2.000000 2.000000 0.000000 86.103516 6.943359 -33.543739 104.547104 0.468724 3.856017 -1.668799 3.381294 -3.509732 -25.632738 20.073147 28.994432 15.873723 -3.897832 -1.252950 15.569723 3.162043 -0.005676 -5.282751 -15.083317 -11.097739 15.045491 3.876112 1.121765 7.730569 -2.181076 -0.011136 
14.074289 44.254498 -66.937103 17.998047 8.574219 -46.297371 10.370376 -8.712459 -6.345483 -7.714843 6.904297 9.073440 -8.603516 0.000000 0.000000 24.628910 21.835939 -29.869417 2.000000 -2.000000 0.000000 -77.646484 -0.693359 13.769532 -51.041790 -0.574206 2.923321 1.649248 -3.400840 -3.509154 -2.000000 2.000000 0.000000 84.658203 6.464844 -34.082031 102.702026 0.451007 3.825596 -1.668799 3.381294 -3.509732 -28.044798 19.898117 27.784708 14.765570 -3.935585 -1.175950 15.156315 2.864946 0.015084 -7.098930 -14.255263 -12.159077 14.421489 3.902918 1.108454 7.331457 -0.446792 0.005267 
13.795834 44.251392 -68.160378 19.853516 8.085938 -42.830658 10.370376 -8.712459 -6.345483 -8.242188 8.955079 7.765192 -8.603516 0.000000 0.000000 24.960938 21.533201 -29.644855 2.000000 -2.000000 0.000000 -79.033203 -1.474609 11.435547 -51.217575 -0.574206 2.923321 1.649248 -3.400840 -3.509154 -2.000000 2.000000 0.000000 83.183594 5.976563 -34.159142 101.989349 0.441852 3.815259 -1.668799 3.381294 -3.509732 -30.448898 19.540577 27.623787 13.125304 -3.957322 -1.058817 15.082379 2.615126 -0.021767 -9.313639 -13.410522 -14.466921 13.744050 3.904210 1.001059 7.058117 1.039984 0.026784 
13.490727 44.241955 -69.507477 21.611326 7.597656 -39.580082 10.370376 -8.712459 -6.345483 -8.769531 10.898438 6.593644 -8.603516 0.000000 0.000000 24.521486 20.859375 -28.902775 2.000000 -2.000000 0.000000 -80.205078 -2.392578 9.003905 -51.080853 -0.574206 2.923321 1.649248 -3.400840 -3.509154 -2.000000 2.000000 0.000000 81.962891 5.644531 -34.022476 101.735649 0.442445 3.805513 -1.668799 3.381294 -3.509732 -32.576992 19.080162 28.203735 11.163251 -3.984392 -0.937053 15.304505 2.329216 -0.033776 -11.676667 -12.630405 -16.945185 13.210553 3.915238 1.011772 6.788126 2.346350 0.008816 
13.182642 44.234962 -70.842422 23.310547 7.089844 -36.356216 10.370376 -8.712459 -6.345483 -9.199218 12.724610 5.431839 -8.603516 0.000000 0.000000 23.974609 20.244139 -28.307171 2.000000 -2.000000 0.000000 -81.328125 -3.242188 6.679624 -50.856239 -0.583954 2.923912 1.649248 -3.400840 -3.509154 -2.000000 2.000000 0.000000 80.947266 5.390625 -33.867188 101.452438 0.442445 3.805513 -1.668799 3.381294 -3.509732 -34.526745 18.586367 28.997189 9.236464 -4.002334 -0.787115 15.471604 1.954103 -0.034448 -14.020582 -11.899428 -19.140022 12.788906 3.926821 0.982279 6.525798 3.636043 0.022403 
12.895199 44.225513 -72.138298 25.175783 6.542969 -33.016460 10.370376 -8.712459 -6.345483 -9.736329 14.638673 4.150391 -8.603516 0.000000 0.000000 23.593750 19.843748 -28.095701 2.000000 -2.000000 0.000000 -82.519531 -3.964844 4.433594 -50.661137 -0.584544 2.914166 1.649248 -3.400840 -3.509154 -2.000000 2.000000 0.000000 79.960938 5.175782 -33.818359 100.964363 0.443038 3.795768 -1.668799 3.381294 -3.509732 -36.704868 18.089432 29.512165 7.332440 -4.030963 -0.649219 15.521122 1.574278 -0.013744 -16.440279 -11.135138 -21.226723 12.383624 3.913156 0.961601 6.286325 5.028653 0.033301 
